<mxfile host="Electron" modified="2023-07-01T14:53:30.223Z" agent="Mozilla/5.0 (Windows NT 10.0; Win64; x64) AppleWebKit/537.36 (KHTML, like Gecko) draw.io/21.2.8 Chrome/112.0.5615.165 Electron/24.2.0 Safari/537.36" etag="jY_eF4vGkGIWtEvbDApH" version="21.2.8" type="device">
  <diagram id="C5RBs43oDa-KdzZeNtuy" name="ArrayList分析">
    <mxGraphModel dx="2261" dy="844" grid="1" gridSize="10" guides="1" tooltips="1" connect="1" arrows="1" fold="1" page="1" pageScale="1" pageWidth="827" pageHeight="1169" math="0" shadow="0">
      <root>
        <mxCell id="WIyWlLk6GJQsqaUBKTNV-0" />
        <mxCell id="WIyWlLk6GJQsqaUBKTNV-1" parent="WIyWlLk6GJQsqaUBKTNV-0" />
        <mxCell id="WIyWlLk6GJQsqaUBKTNV-2" value="" style="rounded=0;html=1;jettySize=auto;orthogonalLoop=1;fontSize=11;endArrow=block;endFill=0;endSize=8;strokeWidth=1;shadow=0;labelBackgroundColor=none;edgeStyle=orthogonalEdgeStyle;" parent="WIyWlLk6GJQsqaUBKTNV-1" source="WIyWlLk6GJQsqaUBKTNV-3" target="WIyWlLk6GJQsqaUBKTNV-6" edge="1">
          <mxGeometry relative="1" as="geometry" />
        </mxCell>
        <mxCell id="WIyWlLk6GJQsqaUBKTNV-3" value="&lt;font style=&quot;font-size: 18px;&quot;&gt;add&lt;/font&gt;" style="rounded=1;whiteSpace=wrap;html=1;fontSize=12;glass=0;strokeWidth=1;shadow=0;" parent="WIyWlLk6GJQsqaUBKTNV-1" vertex="1">
          <mxGeometry x="80" y="50" width="130" height="50" as="geometry" />
        </mxCell>
        <mxCell id="YWzRngKKoOlQnykfO6A6-1" style="edgeStyle=orthogonalEdgeStyle;rounded=0;orthogonalLoop=1;jettySize=auto;html=1;entryX=0;entryY=0.5;entryDx=0;entryDy=0;" edge="1" parent="WIyWlLk6GJQsqaUBKTNV-1" source="WIyWlLk6GJQsqaUBKTNV-6" target="WIyWlLk6GJQsqaUBKTNV-7">
          <mxGeometry relative="1" as="geometry" />
        </mxCell>
        <mxCell id="YWzRngKKoOlQnykfO6A6-3" style="edgeStyle=orthogonalEdgeStyle;rounded=0;orthogonalLoop=1;jettySize=auto;html=1;entryX=0.5;entryY=0;entryDx=0;entryDy=0;" edge="1" parent="WIyWlLk6GJQsqaUBKTNV-1" source="WIyWlLk6GJQsqaUBKTNV-6" target="WIyWlLk6GJQsqaUBKTNV-10">
          <mxGeometry relative="1" as="geometry" />
        </mxCell>
        <mxCell id="WIyWlLk6GJQsqaUBKTNV-6" value="&lt;div style=&quot;background-color:#ffffff;color:#080808;font-family:&#39;JetBrains Mono&#39;,monospace;font-size:12.0pt;&quot;&gt;&lt;pre&gt;&lt;div style=&quot;font-family: &amp;quot;JetBrains Mono&amp;quot;, monospace; font-size: 12pt;&quot;&gt;&lt;pre&gt;ensureCapacityInternal&lt;/pre&gt;&lt;/div&gt;&lt;/pre&gt;&lt;/div&gt;" style="rhombus;whiteSpace=wrap;html=1;shadow=0;fontFamily=Helvetica;fontSize=12;align=center;strokeWidth=1;spacing=6;spacingTop=-4;" parent="WIyWlLk6GJQsqaUBKTNV-1" vertex="1">
          <mxGeometry x="40" y="190" width="210" height="80" as="geometry" />
        </mxCell>
        <mxCell id="WIyWlLk6GJQsqaUBKTNV-7" value="&lt;font style=&quot;font-size: 18px;&quot;&gt;扩容&lt;/font&gt;" style="rounded=1;whiteSpace=wrap;html=1;fontSize=12;glass=0;strokeWidth=1;shadow=0;" parent="WIyWlLk6GJQsqaUBKTNV-1" vertex="1">
          <mxGeometry x="380" y="210" width="120" height="40" as="geometry" />
        </mxCell>
        <mxCell id="WIyWlLk6GJQsqaUBKTNV-10" value="&lt;div style=&quot;background-color:#ffffff;color:#080808;font-family:&#39;JetBrains Mono&#39;,monospace;font-size:12.0pt;&quot;&gt;&lt;pre&gt;elementData[&lt;span style=&quot;color:#871094;&quot;&gt;size&lt;/span&gt;++] = e;&lt;/pre&gt;&lt;/div&gt;" style="rhombus;whiteSpace=wrap;html=1;shadow=0;fontFamily=Helvetica;fontSize=12;align=center;strokeWidth=1;spacing=6;spacingTop=-4;" parent="WIyWlLk6GJQsqaUBKTNV-1" vertex="1">
          <mxGeometry x="40" y="360" width="210" height="100" as="geometry" />
        </mxCell>
        <mxCell id="YWzRngKKoOlQnykfO6A6-2" value="&lt;font style=&quot;font-size: 18px;&quot;&gt;szie + 1 &amp;gt; elementData的长度；则进行扩容;根据elementData1.5倍&lt;/font&gt;" style="text;html=1;strokeColor=none;fillColor=none;align=center;verticalAlign=middle;whiteSpace=wrap;rounded=0;" vertex="1" parent="WIyWlLk6GJQsqaUBKTNV-1">
          <mxGeometry x="200" y="150" width="260" height="60" as="geometry" />
        </mxCell>
        <mxCell id="YWzRngKKoOlQnykfO6A6-6" value="&lt;font style=&quot;font-size: 18px;&quot;&gt;添加到数组的尾部元素&lt;/font&gt;" style="text;html=1;strokeColor=none;fillColor=none;align=center;verticalAlign=middle;whiteSpace=wrap;rounded=0;" vertex="1" parent="WIyWlLk6GJQsqaUBKTNV-1">
          <mxGeometry x="160" y="290" width="240" height="60" as="geometry" />
        </mxCell>
        <mxCell id="YWzRngKKoOlQnykfO6A6-17" style="edgeStyle=orthogonalEdgeStyle;rounded=0;orthogonalLoop=1;jettySize=auto;html=1;exitX=0.5;exitY=1;exitDx=0;exitDy=0;" edge="1" parent="WIyWlLk6GJQsqaUBKTNV-1" source="YWzRngKKoOlQnykfO6A6-8">
          <mxGeometry relative="1" as="geometry">
            <mxPoint x="805" y="130" as="targetPoint" />
          </mxGeometry>
        </mxCell>
        <mxCell id="YWzRngKKoOlQnykfO6A6-8" value="&lt;font style=&quot;font-size: 18px;&quot;&gt;add(int index, E element)&lt;/font&gt;" style="rounded=1;whiteSpace=wrap;html=1;fontSize=12;glass=0;strokeWidth=1;shadow=0;" vertex="1" parent="WIyWlLk6GJQsqaUBKTNV-1">
          <mxGeometry x="680" y="50" width="250" height="50" as="geometry" />
        </mxCell>
        <mxCell id="YWzRngKKoOlQnykfO6A6-9" style="edgeStyle=orthogonalEdgeStyle;rounded=0;orthogonalLoop=1;jettySize=auto;html=1;entryX=0;entryY=0.5;entryDx=0;entryDy=0;" edge="1" parent="WIyWlLk6GJQsqaUBKTNV-1" source="YWzRngKKoOlQnykfO6A6-11" target="YWzRngKKoOlQnykfO6A6-12">
          <mxGeometry relative="1" as="geometry" />
        </mxCell>
        <mxCell id="YWzRngKKoOlQnykfO6A6-23" style="edgeStyle=orthogonalEdgeStyle;rounded=0;orthogonalLoop=1;jettySize=auto;html=1;exitX=0.5;exitY=1;exitDx=0;exitDy=0;entryX=0.413;entryY=0;entryDx=0;entryDy=0;entryPerimeter=0;" edge="1" parent="WIyWlLk6GJQsqaUBKTNV-1" source="YWzRngKKoOlQnykfO6A6-11" target="YWzRngKKoOlQnykfO6A6-22">
          <mxGeometry relative="1" as="geometry" />
        </mxCell>
        <mxCell id="YWzRngKKoOlQnykfO6A6-11" value="&lt;div style=&quot;background-color:#ffffff;color:#080808;font-family:&#39;JetBrains Mono&#39;,monospace;font-size:12.0pt;&quot;&gt;&lt;pre&gt;&lt;div style=&quot;font-family: &amp;quot;JetBrains Mono&amp;quot;, monospace; font-size: 12pt;&quot;&gt;&lt;pre&gt;ensureCapacityInternal&lt;/pre&gt;&lt;/div&gt;&lt;/pre&gt;&lt;/div&gt;" style="rhombus;whiteSpace=wrap;html=1;shadow=0;fontFamily=Helvetica;fontSize=12;align=center;strokeWidth=1;spacing=6;spacingTop=-4;" vertex="1" parent="WIyWlLk6GJQsqaUBKTNV-1">
          <mxGeometry x="700" y="350" width="210" height="80" as="geometry" />
        </mxCell>
        <mxCell id="YWzRngKKoOlQnykfO6A6-12" value="&lt;font style=&quot;font-size: 18px;&quot;&gt;扩容&lt;/font&gt;" style="rounded=1;whiteSpace=wrap;html=1;fontSize=12;glass=0;strokeWidth=1;shadow=0;" vertex="1" parent="WIyWlLk6GJQsqaUBKTNV-1">
          <mxGeometry x="1040" y="370" width="120" height="40" as="geometry" />
        </mxCell>
        <mxCell id="YWzRngKKoOlQnykfO6A6-13" value="&lt;div style=&quot;background-color:#ffffff;color:#080808;font-family:&#39;JetBrains Mono&#39;,monospace;font-size:12.0pt;&quot;&gt;&lt;pre&gt;&lt;div style=&quot;font-family: &amp;quot;JetBrains Mono&amp;quot;, monospace; font-size: 12pt;&quot;&gt;&lt;pre&gt;elementData[index] = element;&lt;/pre&gt;&lt;/div&gt;&lt;/pre&gt;&lt;/div&gt;" style="rhombus;whiteSpace=wrap;html=1;shadow=0;fontFamily=Helvetica;fontSize=12;align=center;strokeWidth=1;spacing=6;spacingTop=-4;" vertex="1" parent="WIyWlLk6GJQsqaUBKTNV-1">
          <mxGeometry x="710" y="600" width="210" height="100" as="geometry" />
        </mxCell>
        <mxCell id="YWzRngKKoOlQnykfO6A6-14" value="&lt;font style=&quot;font-size: 18px;&quot;&gt;szie + 1 &amp;gt; elementData的长度；则进行扩容;根据elementData1.5倍&lt;/font&gt;" style="text;html=1;strokeColor=none;fillColor=none;align=center;verticalAlign=middle;whiteSpace=wrap;rounded=0;" vertex="1" parent="WIyWlLk6GJQsqaUBKTNV-1">
          <mxGeometry x="860" y="310" width="260" height="60" as="geometry" />
        </mxCell>
        <mxCell id="YWzRngKKoOlQnykfO6A6-19" style="edgeStyle=orthogonalEdgeStyle;rounded=0;orthogonalLoop=1;jettySize=auto;html=1;exitX=1;exitY=0.5;exitDx=0;exitDy=0;entryX=0;entryY=0.5;entryDx=0;entryDy=0;" edge="1" parent="WIyWlLk6GJQsqaUBKTNV-1" source="YWzRngKKoOlQnykfO6A6-16" target="YWzRngKKoOlQnykfO6A6-18">
          <mxGeometry relative="1" as="geometry" />
        </mxCell>
        <mxCell id="YWzRngKKoOlQnykfO6A6-21" style="edgeStyle=orthogonalEdgeStyle;rounded=0;orthogonalLoop=1;jettySize=auto;html=1;exitX=0.5;exitY=1;exitDx=0;exitDy=0;" edge="1" parent="WIyWlLk6GJQsqaUBKTNV-1" source="YWzRngKKoOlQnykfO6A6-16">
          <mxGeometry relative="1" as="geometry">
            <mxPoint x="800" y="340" as="targetPoint" />
          </mxGeometry>
        </mxCell>
        <mxCell id="YWzRngKKoOlQnykfO6A6-16" value="&lt;font style=&quot;font-size: 18px;&quot;&gt;rangeCheckForAdd(index)&lt;/font&gt;" style="rhombus;whiteSpace=wrap;html=1;" vertex="1" parent="WIyWlLk6GJQsqaUBKTNV-1">
          <mxGeometry x="680" y="140" width="240" height="130" as="geometry" />
        </mxCell>
        <mxCell id="YWzRngKKoOlQnykfO6A6-18" value="&lt;font style=&quot;font-size: 18px;&quot;&gt;抛出异常,不往下走&lt;/font&gt;" style="ellipse;whiteSpace=wrap;html=1;aspect=fixed;" vertex="1" parent="WIyWlLk6GJQsqaUBKTNV-1">
          <mxGeometry x="1020" y="150" width="110" height="110" as="geometry" />
        </mxCell>
        <mxCell id="YWzRngKKoOlQnykfO6A6-20" value="&lt;font style=&quot;font-size: 18px;&quot;&gt;index大于size或者小于0&lt;/font&gt;" style="text;html=1;strokeColor=none;fillColor=none;align=center;verticalAlign=middle;whiteSpace=wrap;rounded=0;" vertex="1" parent="WIyWlLk6GJQsqaUBKTNV-1">
          <mxGeometry x="880" y="150" width="160" height="30" as="geometry" />
        </mxCell>
        <mxCell id="YWzRngKKoOlQnykfO6A6-26" style="edgeStyle=orthogonalEdgeStyle;rounded=0;orthogonalLoop=1;jettySize=auto;html=1;exitX=0.5;exitY=1;exitDx=0;exitDy=0;" edge="1" parent="WIyWlLk6GJQsqaUBKTNV-1" source="YWzRngKKoOlQnykfO6A6-22">
          <mxGeometry relative="1" as="geometry">
            <mxPoint x="825" y="590" as="targetPoint" />
          </mxGeometry>
        </mxCell>
        <mxCell id="YWzRngKKoOlQnykfO6A6-22" value="System.arraycopy" style="rounded=1;whiteSpace=wrap;html=1;" vertex="1" parent="WIyWlLk6GJQsqaUBKTNV-1">
          <mxGeometry x="710" y="490" width="230" height="60" as="geometry" />
        </mxCell>
        <mxCell id="YWzRngKKoOlQnykfO6A6-24" value="&lt;font style=&quot;font-size: 18px;&quot;&gt;移出对应index下标之后的值；空出index的位置值&lt;/font&gt;" style="text;html=1;strokeColor=none;fillColor=none;align=center;verticalAlign=middle;whiteSpace=wrap;rounded=0;" vertex="1" parent="WIyWlLk6GJQsqaUBKTNV-1">
          <mxGeometry x="950" y="495" width="300" height="50" as="geometry" />
        </mxCell>
        <mxCell id="YWzRngKKoOlQnykfO6A6-27" value="&lt;font style=&quot;font-size: 18px;&quot;&gt;给对应index下标赋值;并且size++&lt;/font&gt;" style="text;html=1;strokeColor=none;fillColor=none;align=center;verticalAlign=middle;whiteSpace=wrap;rounded=0;" vertex="1" parent="WIyWlLk6GJQsqaUBKTNV-1">
          <mxGeometry x="950" y="630" width="310" height="40" as="geometry" />
        </mxCell>
        <mxCell id="YWzRngKKoOlQnykfO6A6-31" style="edgeStyle=orthogonalEdgeStyle;rounded=0;orthogonalLoop=1;jettySize=auto;html=1;" edge="1" parent="WIyWlLk6GJQsqaUBKTNV-1" source="YWzRngKKoOlQnykfO6A6-28">
          <mxGeometry relative="1" as="geometry">
            <mxPoint x="55" y="950" as="targetPoint" />
          </mxGeometry>
        </mxCell>
        <mxCell id="YWzRngKKoOlQnykfO6A6-28" value="&lt;font style=&quot;font-size: 18px;&quot;&gt;set(int index, E element)&lt;/font&gt;" style="rounded=1;whiteSpace=wrap;html=1;" vertex="1" parent="WIyWlLk6GJQsqaUBKTNV-1">
          <mxGeometry x="-80" y="800" width="270" height="70" as="geometry" />
        </mxCell>
        <mxCell id="YWzRngKKoOlQnykfO6A6-33" style="edgeStyle=orthogonalEdgeStyle;rounded=0;orthogonalLoop=1;jettySize=auto;html=1;entryX=0;entryY=0.5;entryDx=0;entryDy=0;" edge="1" parent="WIyWlLk6GJQsqaUBKTNV-1" source="YWzRngKKoOlQnykfO6A6-30" target="YWzRngKKoOlQnykfO6A6-32">
          <mxGeometry relative="1" as="geometry" />
        </mxCell>
        <mxCell id="YWzRngKKoOlQnykfO6A6-36" style="edgeStyle=orthogonalEdgeStyle;rounded=0;orthogonalLoop=1;jettySize=auto;html=1;exitX=0.5;exitY=1;exitDx=0;exitDy=0;" edge="1" parent="WIyWlLk6GJQsqaUBKTNV-1" source="YWzRngKKoOlQnykfO6A6-30">
          <mxGeometry relative="1" as="geometry">
            <mxPoint x="55" y="1200" as="targetPoint" />
          </mxGeometry>
        </mxCell>
        <mxCell id="YWzRngKKoOlQnykfO6A6-30" value="&lt;font style=&quot;font-size: 18px;&quot;&gt;rangeCheck(index)&lt;/font&gt;" style="rhombus;whiteSpace=wrap;html=1;" vertex="1" parent="WIyWlLk6GJQsqaUBKTNV-1">
          <mxGeometry x="-60" y="960" width="230" height="160" as="geometry" />
        </mxCell>
        <mxCell id="YWzRngKKoOlQnykfO6A6-32" value="&lt;font style=&quot;font-size: 18px;&quot;&gt;抛出数组下标越界的错误&lt;/font&gt;" style="ellipse;whiteSpace=wrap;html=1;aspect=fixed;" vertex="1" parent="WIyWlLk6GJQsqaUBKTNV-1">
          <mxGeometry x="280" y="950" width="180" height="180" as="geometry" />
        </mxCell>
        <mxCell id="YWzRngKKoOlQnykfO6A6-34" value="&lt;font style=&quot;font-size: 18px;&quot;&gt;index大于等于size的长度&lt;/font&gt;" style="text;html=1;strokeColor=none;fillColor=none;align=center;verticalAlign=middle;whiteSpace=wrap;rounded=0;" vertex="1" parent="WIyWlLk6GJQsqaUBKTNV-1">
          <mxGeometry x="150" y="960" width="130" height="60" as="geometry" />
        </mxCell>
        <mxCell id="YWzRngKKoOlQnykfO6A6-38" style="edgeStyle=orthogonalEdgeStyle;rounded=0;orthogonalLoop=1;jettySize=auto;html=1;exitX=1;exitY=0.5;exitDx=0;exitDy=0;" edge="1" parent="WIyWlLk6GJQsqaUBKTNV-1" source="YWzRngKKoOlQnykfO6A6-35">
          <mxGeometry relative="1" as="geometry">
            <mxPoint x="260" y="1250" as="targetPoint" />
          </mxGeometry>
        </mxCell>
        <mxCell id="YWzRngKKoOlQnykfO6A6-40" style="edgeStyle=orthogonalEdgeStyle;rounded=0;orthogonalLoop=1;jettySize=auto;html=1;exitX=0.5;exitY=1;exitDx=0;exitDy=0;entryX=0.5;entryY=0;entryDx=0;entryDy=0;" edge="1" parent="WIyWlLk6GJQsqaUBKTNV-1" source="YWzRngKKoOlQnykfO6A6-35" target="YWzRngKKoOlQnykfO6A6-39">
          <mxGeometry relative="1" as="geometry" />
        </mxCell>
        <mxCell id="YWzRngKKoOlQnykfO6A6-35" value="&lt;div style=&quot;background-color:#ffffff;color:#080808;font-family:&#39;JetBrains Mono&#39;,monospace;font-size:12.0pt;&quot;&gt;&lt;pre&gt;elementData(index)&lt;/pre&gt;&lt;/div&gt;" style="rounded=1;whiteSpace=wrap;html=1;" vertex="1" parent="WIyWlLk6GJQsqaUBKTNV-1">
          <mxGeometry x="-60" y="1210" width="240" height="80" as="geometry" />
        </mxCell>
        <mxCell id="YWzRngKKoOlQnykfO6A6-37" value="&lt;font style=&quot;font-size: 18px;&quot;&gt;取出原下标的值&lt;/font&gt;" style="text;html=1;strokeColor=none;fillColor=none;align=center;verticalAlign=middle;whiteSpace=wrap;rounded=0;" vertex="1" parent="WIyWlLk6GJQsqaUBKTNV-1">
          <mxGeometry x="280" y="1230" width="160" height="50" as="geometry" />
        </mxCell>
        <mxCell id="YWzRngKKoOlQnykfO6A6-42" style="edgeStyle=orthogonalEdgeStyle;rounded=0;orthogonalLoop=1;jettySize=auto;html=1;exitX=1;exitY=0.5;exitDx=0;exitDy=0;entryX=0;entryY=0.5;entryDx=0;entryDy=0;" edge="1" parent="WIyWlLk6GJQsqaUBKTNV-1" source="YWzRngKKoOlQnykfO6A6-39" target="YWzRngKKoOlQnykfO6A6-41">
          <mxGeometry relative="1" as="geometry" />
        </mxCell>
        <mxCell id="YWzRngKKoOlQnykfO6A6-44" style="edgeStyle=orthogonalEdgeStyle;rounded=0;orthogonalLoop=1;jettySize=auto;html=1;entryX=0.474;entryY=-0.08;entryDx=0;entryDy=0;entryPerimeter=0;" edge="1" parent="WIyWlLk6GJQsqaUBKTNV-1" source="YWzRngKKoOlQnykfO6A6-39" target="YWzRngKKoOlQnykfO6A6-43">
          <mxGeometry relative="1" as="geometry" />
        </mxCell>
        <mxCell id="YWzRngKKoOlQnykfO6A6-39" value="&lt;div style=&quot;background-color:#ffffff;color:#080808;font-family:&#39;JetBrains Mono&#39;,monospace;font-size:12.0pt;&quot;&gt;&lt;pre&gt;elementData[index] = element&lt;/pre&gt;&lt;/div&gt;" style="rounded=1;whiteSpace=wrap;html=1;" vertex="1" parent="WIyWlLk6GJQsqaUBKTNV-1">
          <mxGeometry x="-60" y="1370" width="240" height="60" as="geometry" />
        </mxCell>
        <mxCell id="YWzRngKKoOlQnykfO6A6-41" value="&lt;font style=&quot;font-size: 18px;&quot;&gt;覆盖下标的值&lt;/font&gt;" style="text;html=1;strokeColor=none;fillColor=none;align=center;verticalAlign=middle;whiteSpace=wrap;rounded=0;" vertex="1" parent="WIyWlLk6GJQsqaUBKTNV-1">
          <mxGeometry x="280" y="1375" width="190" height="50" as="geometry" />
        </mxCell>
        <mxCell id="YWzRngKKoOlQnykfO6A6-43" value="&lt;font style=&quot;font-size: 18px;&quot;&gt;返回elementData(index)下的值&lt;/font&gt;" style="rounded=1;whiteSpace=wrap;html=1;" vertex="1" parent="WIyWlLk6GJQsqaUBKTNV-1">
          <mxGeometry x="-70" y="1500" width="270" height="50" as="geometry" />
        </mxCell>
        <mxCell id="YWzRngKKoOlQnykfO6A6-47" style="edgeStyle=orthogonalEdgeStyle;rounded=0;orthogonalLoop=1;jettySize=auto;html=1;" edge="1" parent="WIyWlLk6GJQsqaUBKTNV-1" source="YWzRngKKoOlQnykfO6A6-45">
          <mxGeometry relative="1" as="geometry">
            <mxPoint x="890" y="930" as="targetPoint" />
          </mxGeometry>
        </mxCell>
        <mxCell id="YWzRngKKoOlQnykfO6A6-45" value="&lt;font style=&quot;font-size: 18px;&quot;&gt;remove(index)&lt;/font&gt;" style="rounded=1;whiteSpace=wrap;html=1;" vertex="1" parent="WIyWlLk6GJQsqaUBKTNV-1">
          <mxGeometry x="760" y="800" width="260" height="60" as="geometry" />
        </mxCell>
        <mxCell id="YWzRngKKoOlQnykfO6A6-49" style="edgeStyle=orthogonalEdgeStyle;rounded=0;orthogonalLoop=1;jettySize=auto;html=1;exitX=1;exitY=0.5;exitDx=0;exitDy=0;" edge="1" parent="WIyWlLk6GJQsqaUBKTNV-1" source="YWzRngKKoOlQnykfO6A6-46">
          <mxGeometry relative="1" as="geometry">
            <mxPoint x="1040" y="1010" as="targetPoint" />
          </mxGeometry>
        </mxCell>
        <mxCell id="YWzRngKKoOlQnykfO6A6-51" style="edgeStyle=orthogonalEdgeStyle;rounded=0;orthogonalLoop=1;jettySize=auto;html=1;exitX=0.5;exitY=1;exitDx=0;exitDy=0;" edge="1" parent="WIyWlLk6GJQsqaUBKTNV-1" source="YWzRngKKoOlQnykfO6A6-46">
          <mxGeometry relative="1" as="geometry">
            <mxPoint x="890" y="1150" as="targetPoint" />
          </mxGeometry>
        </mxCell>
        <mxCell id="YWzRngKKoOlQnykfO6A6-46" value="&lt;font style=&quot;font-size: 18px;&quot;&gt;rangeCheck(index)&lt;/font&gt;" style="rhombus;whiteSpace=wrap;html=1;" vertex="1" parent="WIyWlLk6GJQsqaUBKTNV-1">
          <mxGeometry x="795" y="940" width="190" height="140" as="geometry" />
        </mxCell>
        <mxCell id="YWzRngKKoOlQnykfO6A6-48" value="&lt;font style=&quot;font-size: 18px;&quot;&gt;如果index大于等于size;则跑出下标越界的错误&lt;/font&gt;" style="text;html=1;strokeColor=none;fillColor=none;align=center;verticalAlign=middle;whiteSpace=wrap;rounded=0;" vertex="1" parent="WIyWlLk6GJQsqaUBKTNV-1">
          <mxGeometry x="1070" y="1000" width="300" height="30" as="geometry" />
        </mxCell>
        <mxCell id="YWzRngKKoOlQnykfO6A6-53" style="edgeStyle=orthogonalEdgeStyle;rounded=0;orthogonalLoop=1;jettySize=auto;html=1;exitX=1;exitY=0.5;exitDx=0;exitDy=0;entryX=0;entryY=0.5;entryDx=0;entryDy=0;" edge="1" parent="WIyWlLk6GJQsqaUBKTNV-1" source="YWzRngKKoOlQnykfO6A6-50" target="YWzRngKKoOlQnykfO6A6-52">
          <mxGeometry relative="1" as="geometry" />
        </mxCell>
        <mxCell id="YWzRngKKoOlQnykfO6A6-55" style="edgeStyle=orthogonalEdgeStyle;rounded=0;orthogonalLoop=1;jettySize=auto;html=1;exitX=0.5;exitY=1;exitDx=0;exitDy=0;entryX=0.481;entryY=-0.08;entryDx=0;entryDy=0;entryPerimeter=0;" edge="1" parent="WIyWlLk6GJQsqaUBKTNV-1" source="YWzRngKKoOlQnykfO6A6-50" target="YWzRngKKoOlQnykfO6A6-54">
          <mxGeometry relative="1" as="geometry" />
        </mxCell>
        <mxCell id="YWzRngKKoOlQnykfO6A6-50" value="&lt;font style=&quot;font-size: 18px;&quot;&gt;E oldValue = elementData(index)&lt;/font&gt;" style="rounded=1;whiteSpace=wrap;html=1;" vertex="1" parent="WIyWlLk6GJQsqaUBKTNV-1">
          <mxGeometry x="780" y="1160" width="300" height="60" as="geometry" />
        </mxCell>
        <mxCell id="YWzRngKKoOlQnykfO6A6-52" value="&lt;font style=&quot;font-size: 18px;&quot;&gt;取出原有下标的值&lt;/font&gt;" style="text;html=1;strokeColor=none;fillColor=none;align=center;verticalAlign=middle;whiteSpace=wrap;rounded=0;" vertex="1" parent="WIyWlLk6GJQsqaUBKTNV-1">
          <mxGeometry x="1151" y="1175" width="180" height="30" as="geometry" />
        </mxCell>
        <mxCell id="YWzRngKKoOlQnykfO6A6-57" style="edgeStyle=orthogonalEdgeStyle;rounded=0;orthogonalLoop=1;jettySize=auto;html=1;exitX=1;exitY=0.5;exitDx=0;exitDy=0;" edge="1" parent="WIyWlLk6GJQsqaUBKTNV-1" source="YWzRngKKoOlQnykfO6A6-54" target="YWzRngKKoOlQnykfO6A6-56">
          <mxGeometry relative="1" as="geometry" />
        </mxCell>
        <mxCell id="YWzRngKKoOlQnykfO6A6-59" style="edgeStyle=orthogonalEdgeStyle;rounded=0;orthogonalLoop=1;jettySize=auto;html=1;exitX=0.5;exitY=1;exitDx=0;exitDy=0;" edge="1" parent="WIyWlLk6GJQsqaUBKTNV-1" source="YWzRngKKoOlQnykfO6A6-54">
          <mxGeometry relative="1" as="geometry">
            <mxPoint x="935" y="1410" as="targetPoint" />
          </mxGeometry>
        </mxCell>
        <mxCell id="YWzRngKKoOlQnykfO6A6-54" value="&lt;font style=&quot;font-size: 18px;&quot;&gt;int numMoved = size - index - 1&lt;/font&gt;" style="rounded=1;whiteSpace=wrap;html=1;" vertex="1" parent="WIyWlLk6GJQsqaUBKTNV-1">
          <mxGeometry x="780" y="1300" width="310" height="50" as="geometry" />
        </mxCell>
        <mxCell id="YWzRngKKoOlQnykfO6A6-56" value="&lt;font style=&quot;font-size: 18px;&quot;&gt;计算出需要删除下标的位置&lt;br&gt;如果是0的话,说明需要移除的最后一位,不用调用arraycopy方法&lt;br&gt;否则会调用arraycopy方法进行移除&lt;br&gt;&lt;/font&gt;" style="text;html=1;strokeColor=none;fillColor=none;align=center;verticalAlign=middle;whiteSpace=wrap;rounded=0;" vertex="1" parent="WIyWlLk6GJQsqaUBKTNV-1">
          <mxGeometry x="1151" y="1305" width="299" height="40" as="geometry" />
        </mxCell>
        <mxCell id="YWzRngKKoOlQnykfO6A6-61" style="edgeStyle=orthogonalEdgeStyle;rounded=0;orthogonalLoop=1;jettySize=auto;html=1;exitX=1;exitY=0.5;exitDx=0;exitDy=0;entryX=0;entryY=0.357;entryDx=0;entryDy=0;entryPerimeter=0;" edge="1" parent="WIyWlLk6GJQsqaUBKTNV-1" source="YWzRngKKoOlQnykfO6A6-58" target="YWzRngKKoOlQnykfO6A6-60">
          <mxGeometry relative="1" as="geometry" />
        </mxCell>
        <mxCell id="YWzRngKKoOlQnykfO6A6-58" value="&lt;div style=&quot;background-color:#ffffff;color:#080808;font-family:&#39;JetBrains Mono&#39;,monospace;font-size:12.0pt;&quot;&gt;&lt;pre&gt;elementData[--&lt;span style=&quot;color:#871094;&quot;&gt;size&lt;/span&gt;] = &lt;span style=&quot;color:#0033b3;&quot;&gt;null&lt;/span&gt;;&lt;/pre&gt;&lt;/div&gt;" style="rounded=0;whiteSpace=wrap;html=1;" vertex="1" parent="WIyWlLk6GJQsqaUBKTNV-1">
          <mxGeometry x="790" y="1420" width="310" height="50" as="geometry" />
        </mxCell>
        <mxCell id="YWzRngKKoOlQnykfO6A6-60" value="&lt;font style=&quot;font-size: 18px;&quot;&gt;size减1，并且将remov的元素赋值为null，便于GC回收&lt;/font&gt;" style="text;html=1;strokeColor=none;fillColor=none;align=center;verticalAlign=middle;whiteSpace=wrap;rounded=0;" vertex="1" parent="WIyWlLk6GJQsqaUBKTNV-1">
          <mxGeometry x="1160" y="1420" width="380" height="70" as="geometry" />
        </mxCell>
      </root>
    </mxGraphModel>
  </diagram>
</mxfile>
